<?xml version="1.0" standalone="no"?>
<!DOCTYPE svg PUBLIC "-//W3C//DTD SVG 20010904//EN"
 "http://www.w3.org/TR/2001/REC-SVG-20010904/DTD/svg10.dtd">
<svg version="1.0" xmlns="http://www.w3.org/2000/svg"
 width="800.000000pt" height="800.000000pt" viewBox="0 0 800.000000 800.000000"
 preserveAspectRatio="xMidYMid meet">
<metadata>
Created by potrace 1.16, written by Peter Selinger 2001-2019
</metadata>
<g transform="translate(0.000000,800.000000) scale(0.100000,-0.100000)"
fill="#000000" stroke="none">
<path d="M3885 6806 c-22 -7 -249 -113 -505 -236 -256 -122 -548 -262 -650
-310 -102 -48 -279 -133 -394 -189 -115 -56 -210 -101 -211 -101 -18 0 -371
-181 -401 -206 -53 -43 -100 -113 -119 -178 -9 -28 -87 -364 -175 -746 -87
-382 -200 -875 -250 -1095 -84 -363 -92 -407 -88 -475 3 -41 13 -95 24 -120
11 -27 177 -243 423 -550 223 -278 544 -678 714 -890 170 -212 333 -408 362
-437 33 -31 76 -60 112 -75 l58 -23 1195 -3 c1174 -2 1196 -2 1260 18 36 11
86 35 111 54 28 21 216 246 510 611 255 318 582 724 727 904 149 185 274 350
289 381 19 40 28 76 31 130 4 70 -13 149 -252 1186 -141 612 -263 1131 -271
1154 -21 59 -79 135 -130 170 -23 16 -141 76 -261 133 -120 57 -520 248 -889
425 -954 455 -944 451 -992 467 -53 18 -173 18 -228 1z m195 -751 c44 -42 53
-96 35 -217 -9 -57 -17 -142 -18 -190 -2 -77 0 -89 21 -110 12 -13 22 -34 22
-45 0 -17 8 -22 48 -28 333 -48 644 -192 874 -404 42 -39 81 -71 86 -71 5 0
15 7 22 15 7 8 29 15 50 15 42 0 89 37 231 183 47 47 97 90 112 96 145 55 241
-110 125 -215 -12 -12 -72 -51 -133 -87 -133 -79 -195 -130 -195 -161 0 -13
-9 -31 -20 -41 -11 -10 -20 -21 -20 -26 0 -4 22 -45 50 -92 147 -249 221 -560
206 -864 -4 -85 -2 -133 4 -133 5 0 27 -15 47 -34 44 -39 91 -51 267 -66 76
-7 135 -17 162 -29 115 -51 110 -200 -8 -231 -49 -14 -73 -9 -218 45 -160 60
-222 73 -253 53 -13 -9 -34 -14 -48 -11 -22 4 -26 -2 -48 -64 -101 -286 -331
-579 -591 -754 -41 -28 -76 -52 -78 -54 -1 -1 2 -13 6 -26 5 -13 6 -36 1 -51
-9 -34 28 -116 112 -241 70 -103 89 -143 89 -187 0 -38 -23 -84 -52 -104 -28
-20 -90 -20 -128 -1 -44 23 -64 59 -109 193 -52 156 -86 229 -112 237 -11 4
-30 18 -43 32 l-23 25 -79 -25 c-304 -96 -668 -93 -962 7 l-70 24 -12 -23 c-7
-13 -25 -29 -41 -35 -37 -16 -66 -74 -119 -241 -48 -148 -78 -192 -141 -209
-50 -14 -101 7 -129 52 -36 59 -22 126 44 217 18 25 57 87 85 136 43 75 51 97
50 135 -1 25 1 55 5 67 6 19 -5 30 -86 85 -119 81 -304 265 -391 388 -67 96
-160 272 -193 367 -16 46 -21 51 -49 52 -16 0 -50 3 -75 6 -46 7 -97 -7 -300
-80 -100 -36 -151 -31 -197 19 -39 42 -44 93 -13 143 30 50 69 64 221 79 181
18 228 29 264 63 17 16 36 31 44 33 12 4 15 41 16 219 1 230 15 325 72 498 29
90 111 266 155 334 30 48 31 48 11 62 -12 8 -24 30 -27 49 -8 43 -80 99 -257
199 -25 14 -62 44 -82 66 -30 34 -37 49 -37 84 0 91 73 144 161 118 32 -10 65
-37 148 -122 113 -118 180 -169 218 -169 14 0 33 -5 44 -11 17 -9 29 -1 87 51
248 228 527 361 860 411 70 11 82 15 82 32 0 10 9 30 20 44 16 21 20 41 20
112 0 47 -7 129 -16 181 -21 128 -13 173 37 223 37 37 42 39 85 34 31 -3 54
-13 74 -32z"/>
<path d="M3715 5115 c-192 -44 -374 -135 -529 -264 l-65 -54 22 -17 c50 -38
439 -312 483 -340 62 -39 106 -40 144 -2 35 35 36 41 55 383 18 322 18 319 3
318 -7 0 -58 -11 -113 -24z"/>
<path d="M4160 5103 c0 -48 28 -547 34 -596 8 -74 81 -116 145 -84 17 8 143
95 281 193 l251 177 -27 28 c-43 45 -192 147 -274 189 -91 46 -224 94 -305
109 -33 7 -70 14 -82 17 -21 4 -23 1 -23 -33z"/>
<path d="M2872 4443 c-89 -191 -122 -336 -122 -545 0 -119 1 -129 18 -124 9 3
149 44 311 90 282 82 311 93 338 126 13 16 17 78 7 105 -5 12 -348 325 -485
442 -14 12 -22 1 -67 -94z"/>
<path d="M4920 4418 c-301 -270 -348 -317 -355 -348 -8 -38 18 -93 53 -110 15
-7 162 -52 327 -100 l300 -87 3 111 c5 191 -40 390 -128 568 -23 46 -45 86
-48 90 -4 3 -72 -52 -152 -124z"/>
<path d="M3844 4018 l-57 -71 17 -86 c10 -47 22 -91 26 -96 5 -6 45 -28 89
-50 l81 -39 81 39 c45 22 84 47 89 55 15 30 41 170 34 182 -4 7 -30 41 -58 76
l-50 62 -97 0 -97 0 -58 -72z"/>
<path d="M3128 3517 c-240 -41 -298 -54 -298 -67 0 -23 81 -179 136 -262 84
-127 330 -357 354 -332 5 5 61 135 125 289 134 321 140 349 87 396 -24 22 -42
29 -70 28 -20 -1 -171 -24 -334 -52z"/>
<path d="M4477 3559 c-21 -12 -47 -61 -47 -89 0 -12 51 -146 114 -298 63 -152
119 -290 125 -305 l11 -28 60 42 c171 120 340 336 418 535 l20 51 -306 51
c-316 54 -364 59 -395 41z"/>
<path d="M3936 3288 c-23 -21 -326 -557 -326 -577 0 -13 156 -49 267 -62 144
-16 339 1 480 44 l42 12 -155 280 c-85 154 -166 290 -180 303 -17 15 -38 22
-64 22 -26 0 -47 -7 -64 -22z"/>
</g>
</svg>
