<?xml version="1.0" standalone="no"?>
<!DOCTYPE svg PUBLIC "-//W3C//DTD SVG 20010904//EN"
 "http://www.w3.org/TR/2001/REC-SVG-20010904/DTD/svg10.dtd">
<svg version="1.0" xmlns="http://www.w3.org/2000/svg"
 width="40.000000pt" height="40.000000pt" viewBox="0 0 40.000000 40.000000"
 preserveAspectRatio="xMidYMid meet">
<metadata>
Created by potrace 1.16, written by Peter Selinger 2001-2019
</metadata>
<g transform="translate(0.000000,40.000000) scale(0.100000,-0.100000)"
fill="#000000" stroke="none">
<path d="M0 200 l0 -200 200 0 200 0 0 34 c0 19 -6 37 -12 39 -10 4 -10 6 0 6
9 1 12 40 12 161 l0 160 -200 0 -200 0 0 -200z m220 165 c6 -8 10 -20 7 -27
-4 -8 -6 -7 -6 4 -1 24 -17 31 -17 7 0 -10 5 -20 11 -20 21 -3 40 -6 53 -8 8
0 10 -6 6 -13 -4 -8 -3 -10 2 -5 5 5 9 14 9 20 0 7 8 13 18 15 25 5 33 -26 12
-46 -10 -9 -15 -11 -11 -4 4 6 2 12 -3 12 -26 0 -4 -34 24 -38 41 -6 45 -11
45 -62 0 -36 -4 -52 -15 -55 -8 -3 -23 -8 -32 -12 -10 -3 -21 -5 -25 -5 -5 1
-8 -3 -8 -8 0 -6 8 -10 18 -8 11 2 17 -3 17 -17 0 -17 -7 -20 -42 -20 -23 0
-43 -2 -45 -5 -1 -3 -8 -14 -14 -25 -15 -27 -48 -26 -52 1 -3 24 -34 36 -67
28 -27 -7 -54 21 -37 38 18 18 15 26 -10 30 -20 3 -23 10 -26 56 -3 48 -1 53
22 62 29 11 32 20 14 38 -9 10 -8 16 5 29 15 15 21 16 38 5 11 -7 25 -10 31
-6 7 4 8 3 4 -4 -5 -8 -2 -10 8 -6 9 3 14 9 12 13 -2 3 0 16 5 29 10 25 31 29
49 7z"/>
<path d="M87 293 c18 -7 -7 -43 -29 -43 -15 0 -18 -9 -18 -50 0 -41 3 -50 18
-50 30 0 44 -21 24 -36 -14 -10 -15 -15 -4 -26 11 -11 12 -10 7 3 -4 10 0 19
11 23 12 5 13 10 6 19 -9 10 -3 13 26 14 33 1 35 0 19 -12 -18 -13 -18 -14 2
-24 31 -17 41 -13 41 14 0 14 5 25 10 25 6 0 10 -11 10 -25 0 -26 14 -31 39
-16 12 8 12 13 3 24 -10 12 -7 14 18 13 16 -1 30 -4 30 -8 0 -3 13 0 30 8 26
13 30 21 30 55 0 32 -4 41 -22 48 -13 5 -27 7 -31 4 -4 -3 -15 1 -24 9 -13 10
-17 10 -20 1 -6 -17 -115 -17 -131 -1 -8 8 -15 8 -27 -2 -9 -8 -15 -8 -15 -2
0 6 5 14 10 17 13 8 3 25 -13 24 -9 0 -9 -2 0 -6z"/>
</g>
</svg>
